<svg width="52" height="15" viewBox="0 0 52 15" fill="none" xmlns="http://www.w3.org/2000/svg">
<path d="M1 8.21042C16.3032 4.72351 32.3885 8.80005 48 8.80005" stroke="#7666FF" stroke-width="2" stroke-linecap="round"/>
<path d="M28.8456 0.0164896C28.3024 -0.0828664 27.7814 0.277001 27.682 0.820273C27.5827 1.36355 27.9426 1.8845 28.4858 1.98386L28.8456 0.0164896ZM31.0013 12.6002C30.4491 12.6042 30.0047 13.0552 30.0087 13.6075C30.0128 14.1598 30.4637 14.6042 31.016 14.6001L31.0013 12.6002ZM28.4858 1.98386C30.3116 2.31777 32.0809 2.93665 33.8728 3.6606C35.6105 4.36264 37.5033 5.22334 39.3101 5.91339L40.0237 4.04502C38.1983 3.34785 36.5148 2.57094 34.622 1.80623C32.7835 1.06343 30.8683 0.386413 28.8456 0.0164896L28.4858 1.98386ZM39.3101 5.91339C41.6272 6.79835 43.98 7.56807 46.3182 8.31058L46.9235 6.40438C44.5921 5.66403 42.2846 4.90852 40.0237 4.04502L39.3101 5.91339ZM46.3182 8.31058C46.881 8.48928 47.5842 8.61054 48.124 8.72365C48.7251 8.84963 49.1875 8.97527 49.5097 9.14836L50.4561 7.38646C49.8536 7.06278 49.1336 6.8918 48.5342 6.76618C47.8734 6.6277 47.3581 6.54237 46.9235 6.40438L46.3182 8.31058ZM49.5097 9.14836C49.4491 9.11581 49.2445 8.98687 49.1542 8.6942C49.0622 8.39638 49.1608 8.16479 49.2041 8.08537C49.2629 7.97772 49.2901 8.0021 49.0785 8.14709C48.7236 8.39024 48.1094 8.7008 47.3913 9.02167C45.9701 9.65676 44.42 10.2116 44.4531 10.2015L45.0381 12.114C45.1077 12.0927 46.738 11.5042 48.2072 10.8477C48.9343 10.5228 49.6928 10.1506 50.2089 9.79696C50.4328 9.64356 50.77 9.39106 50.9597 9.04343C51.0686 8.84401 51.1879 8.50164 51.0651 8.10418C50.944 7.71188 50.6572 7.49444 50.4561 7.38646L49.5097 9.14836ZM44.4531 10.2015C40.0082 11.5611 35.5645 12.5667 31.0013 12.6002L31.016 14.6001C35.8572 14.5646 40.5121 13.4985 45.0381 12.114L44.4531 10.2015Z" fill="#7666FF"/>
</svg>
