<svg width="52" height="15" viewBox="0 0 52 15" fill="none" xmlns="http://www.w3.org/2000/svg">
<path d="M1 8.21066C16.3032 4.72375 32.3885 8.80029 48 8.80029" stroke="#F55EE6" stroke-width="2" stroke-linecap="round"/>
<path d="M28.8451 0.0164896C28.3019 -0.0828664 27.7809 0.277001 27.6815 0.820273C27.5822 1.36355 27.9421 1.8845 28.4853 1.98386L28.8451 0.0164896ZM31.0008 12.6002C30.4486 12.6042 30.0042 13.0552 30.0082 13.6075C30.0123 14.1598 30.4632 14.6042 31.0155 14.6001L31.0008 12.6002ZM28.4853 1.98386C30.3111 2.31777 32.0804 2.93665 33.8723 3.6606C35.61 4.36264 37.5028 5.22334 39.3096 5.91339L40.0232 4.04502C38.1978 3.34785 36.5143 2.57094 34.6215 1.80623C32.783 1.06343 30.8678 0.386413 28.8451 0.0164896L28.4853 1.98386ZM39.3096 5.91339C41.6267 6.79835 43.9795 7.56807 46.3177 8.31058L46.923 6.40438C44.5916 5.66403 42.2841 4.90852 40.0232 4.04502L39.3096 5.91339ZM46.3177 8.31058C46.8805 8.48928 47.5837 8.61054 48.1235 8.72365C48.7246 8.84963 49.187 8.97527 49.5092 9.14836L50.4556 7.38646C49.8531 7.06278 49.1331 6.8918 48.5337 6.76618C47.8729 6.6277 47.3576 6.54237 46.923 6.40438L46.3177 8.31058ZM49.5092 9.14836C49.4486 9.11581 49.244 8.98687 49.1537 8.6942C49.0617 8.39638 49.1603 8.16479 49.2036 8.08537C49.2624 7.97772 49.2896 8.0021 49.078 8.14709C48.7231 8.39024 48.1089 8.7008 47.3908 9.02167C45.9696 9.65676 44.4195 10.2116 44.4526 10.2015L45.0376 12.114C45.1072 12.0927 46.7375 11.5042 48.2067 10.8477C48.9338 10.5228 49.6923 10.1506 50.2084 9.79696C50.4323 9.64356 50.7695 9.39106 50.9592 9.04343C51.0681 8.84401 51.1874 8.50164 51.0646 8.10418C50.9435 7.71188 50.6567 7.49444 50.4556 7.38646L49.5092 9.14836ZM44.4526 10.2015C40.0077 11.5611 35.564 12.5667 31.0008 12.6002L31.0155 14.6001C35.8567 14.5646 40.5116 13.4985 45.0376 12.114L44.4526 10.2015Z" fill="#F55EE6"/>
</svg>
