<svg width="89" height="40" viewBox="0 0 89 40" fill="none" xmlns="http://www.w3.org/2000/svg">
<path d="M9.28652 9.63818C8.00884 9.68733 -0.0867426 10.8555 2.0391 13.0758C3.12754 14.2126 4.81302 14.6948 6.25044 15.2011C7.28494 15.5654 10.1361 15.9811 10.6185 17.2186C10.8784 17.8854 10.3168 18.9104 9.94271 19.4124C8.8846 20.8325 7.06518 21.5462 5.39838 21.9294C4.79554 22.068 3.59004 22.396 2.96951 22.0469C2.82636 21.9664 2.60959 21.5087 2.88137 21.4593C3.84426 21.2842 5.23009 21.3557 6.1525 21.7042C6.44145 21.8133 6.84697 22.0934 7.17106 22.0763C7.36578 22.0661 7.48359 21.8261 7.69992 21.8021C8.52951 21.7099 9.43932 21.6331 10.2953 21.5181C11.8926 21.3035 13.7912 21.0365 15.1922 20.1959C16.0162 19.7015 16.7555 18.7253 17.386 18.0021C17.4727 17.9027 18.4011 16.9123 18.2381 16.7289C18.0679 16.5375 17.0724 17.8755 17.0041 17.9629C16.2264 18.9573 15.407 20.1638 16.6221 21.2438C17.811 22.3007 19.6742 21.8017 20.7453 20.8815C21.438 20.2863 22.0186 19.6558 22.8216 19.1969C22.8735 19.1673 24.0385 18.6034 23.8401 18.4918C21.9488 17.4279 20.4665 22.6712 23.2623 23.0067C24.551 23.1614 26.0567 23.1197 27.3267 22.8794C28.6963 22.6203 29.7868 21.8619 31.0484 21.3516C31.9131 21.0018 32.6594 21.0888 33.2618 20.3526C33.4973 20.0648 34.6721 18.3357 34.6721 19.2557C34.6721 19.7528 34.4439 20.718 35.0051 20.9598C37.873 22.196 42.4572 20.528 44.368 18.3155C44.7985 17.817 45.6901 16.0826 45.2004 16.5232C43.5855 17.9767 42.4598 20.4296 41.1948 22.1645C38.1401 26.3536 34.7548 30.3771 31.0876 34.0444C29.607 35.5249 28.0468 36.9483 26.2984 38.1088C26.0123 38.2986 25.0478 39 24.5649 39C23.8882 39 26.9683 32.9774 27.0917 32.7907C30.3712 27.8281 36.382 24.8169 41.5669 22.2918C44.7891 20.7225 47.7114 19.9547 51.1844 19.6768C52.092 19.6042 52.7887 19.1039 53.4566 18.5212C53.931 18.1073 54.3853 17.6931 54.9061 17.3361C55.0851 17.2134 55.589 16.9282 55.3762 16.8856C53.688 16.548 51.4634 18.6482 51.4195 20.2938C51.3244 23.8617 56.8029 24.2835 58.7453 22.1253C59.4869 21.3013 59.7503 20.1455 59.6659 19.0598C59.6539 18.9061 59.5632 17.9457 59.1762 18.1392C58.4807 18.4869 57.3662 20.4065 58.3731 20.8815C60.0401 21.6678 62.4496 20.062 63.4463 18.8248C63.5211 18.7319 63.972 17.7662 64.1221 18.0413C64.4105 18.57 64.6704 19.184 65.1308 19.5887C67.1701 21.3808 71.7171 19.8144 73.2793 17.9629C74.0054 17.1023 74.7742 16.2525 75.571 15.4557" stroke="#FDFDFD" stroke-width="2" stroke-linecap="round"/>
<path d="M87.0303 1C85.8642 5.79074 84.3 10.5193 82.486 15.1031C81.6449 17.2285 80.7019 19.2801 79.9788 21.4495" stroke="#FDFDFD" stroke-width="2" stroke-linecap="round"/>
<path d="M78.0393 26.3855C78.1751 25.6461 78.4336 25.2442 78.7444 24.6226" stroke="#FDFDFD" stroke-width="2" stroke-linecap="round"/>
</svg>
