<svg width="52" height="16" viewBox="0 0 52 16" fill="none" xmlns="http://www.w3.org/2000/svg">
<g clip-path="url(#clip0_6_2298)">
<path d="M1 8.91031C16.3032 5.4234 32.3885 9.49994 48 9.49994" stroke="#FDFDFD" stroke-width="2" stroke-linecap="round"/>
<path d="M28.8454 0.716319C28.3022 0.616963 27.7812 0.97683 27.6818 1.5201C27.5825 2.06338 27.9424 2.58433 28.4856 2.68369L28.8454 0.716319ZM31.0011 13.3C30.4489 13.304 30.0045 13.755 30.0085 14.3073C30.0126 14.8596 30.4635 15.304 31.0158 15.2999L31.0011 13.3ZM28.4856 2.68369C30.3114 3.0176 32.0807 3.63648 33.8726 4.36043C35.6103 5.06247 37.5031 5.92317 39.3099 6.61322L40.0235 4.74485C38.1981 4.04768 36.5146 3.27077 34.6218 2.50606C32.7833 1.76326 30.8681 1.08624 28.8454 0.716319L28.4856 2.68369ZM39.3099 6.61322C41.627 7.49818 43.9798 8.2679 46.318 9.01041L46.9233 7.10421C44.5919 6.36386 42.2844 5.60835 40.0235 4.74485L39.3099 6.61322ZM46.318 9.01041C46.8808 9.18911 47.584 9.31037 48.1238 9.42348C48.7249 9.54946 49.1873 9.6751 49.5095 9.84819L50.4559 8.08629C49.8534 7.76261 49.1334 7.59163 48.534 7.46601C47.8732 7.32753 47.3579 7.2422 46.9233 7.10421L46.318 9.01041ZM49.5095 9.84819C49.4489 9.81564 49.2443 9.6867 49.154 9.39403C49.062 9.09621 49.1606 8.86462 49.2039 8.7852C49.2627 8.67755 49.2899 8.70193 49.0783 8.84692C48.7234 9.09007 48.1092 9.40063 47.3911 9.7215C45.9699 10.3566 44.4198 10.9114 44.4529 10.9013L45.0379 12.8138C45.1075 12.7925 46.7378 12.204 48.207 11.5475C48.9341 11.2226 49.6926 10.8504 50.2087 10.4968C50.4326 10.3434 50.7698 10.0909 50.9595 9.74326C51.0684 9.54384 51.1877 9.20147 51.0649 8.80401C50.9438 8.41171 50.657 8.19427 50.4559 8.08629L49.5095 9.84819ZM44.4529 10.9013C40.008 12.2609 35.5643 13.2665 31.0011 13.3L31.0158 15.2999C35.857 15.2644 40.5119 14.1983 45.0379 12.8138L44.4529 10.9013Z" fill="#FDFDFD"/>
</g>
<defs>
<clipPath id="clip0_6_2298">
<rect width="52" height="16" fill="white"/>
</clipPath>
</defs>
</svg>
