<svg width="25" height="33" viewBox="0 0 25 33" fill="none" xmlns="http://www.w3.org/2000/svg">
<path fill-rule="evenodd" clip-rule="evenodd" d="M2.46359 16.6242C2.03345 16.4168 1.62663 16.1395 1.26905 15.7818C-0.423017 14.0893 -0.423017 11.3471 1.26905 9.65462L6.57844 4.34122C6.71059 4.20642 6.8557 4.08722 7.0008 3.97312L7.80926 3.16442C11.7427 -0.770079 18.1171 -0.77008 22.0506 3.16442C25.984 7.09892 25.984 13.475 22.0506 17.4095L21.8821 17.578C21.7862 17.6972 21.6852 17.8113 21.5738 17.9227L7.98287 31.5172C6.29081 33.2097 3.54931 33.2097 1.85725 31.5172C0.165189 29.8273 0.165189 27.0825 1.85725 25.3926L3.50267 23.7467C3.10362 23.5497 2.7279 23.2854 2.39622 22.9536L2.26148 22.8188C0.608285 21.1652 0.608285 18.48 2.26148 16.8263L2.46359 16.6242ZM9.80449 5.25092C9.79154 5.26132 9.76562 5.28462 9.76562 5.28462L9.76822 5.28722L2.99738 12.0598C2.38067 12.6767 2.38067 13.6798 2.99738 14.2966C3.61409 14.9135 4.61689 14.9135 5.2336 14.2966L8.24458 11.2849C8.71878 10.808 9.49096 10.8105 9.96774 11.2849C10.4445 11.7592 10.4445 12.5316 9.96774 13.0085L8.87943 14.0971L4.25153 18.7262C3.64778 19.3301 3.64778 20.3099 4.25153 20.9138L4.30076 20.963C4.90451 21.5669 5.88399 21.5669 6.48774 20.963L11.1131 16.3365L11.1182 16.3417L12.2065 15.2531C12.6807 14.7761 13.4529 14.7761 13.9297 15.2531C14.4065 15.7274 14.4065 16.4998 13.9297 16.9767L13.5851 17.324L13.5928 17.324L3.94836 26.9711C3.33165 27.5879 3.33165 28.591 3.94836 29.2079C4.56507 29.8247 5.56786 29.8247 6.18457 29.2079L19.7159 15.6729C19.7521 15.6367 19.7884 15.5978 19.8195 15.5589C19.8947 15.4889 19.9698 15.4189 20.0424 15.3464C22.8512 12.5393 22.8512 7.98542 20.0424 5.17582C17.2361 2.36612 12.6833 2.36612 9.87446 5.17582C9.85114 5.20172 9.82781 5.22762 9.80449 5.25092ZM18.5732 13.0526C19.4568 12.1687 19.8999 11.0076 19.8999 9.84382L19.8999 9.84122C19.8999 8.68002 19.4568 7.51632 18.5732 6.63242C16.8034 4.86222 13.9246 4.86222 12.1548 6.63242C9.8797 8.91072 12.1263 11.1579 13.0876 12.1195C14.049 13.0811 16.2981 15.3283 18.5732 13.0526ZM14.7382 10.471C13.808 9.54062 13.5203 9.07662 13.5203 8.77342C13.5203 8.56862 13.6525 8.43642 13.8054 8.28352C14.6657 7.42302 16.0649 7.42302 16.9252 8.28352C17.7855 9.14402 17.7855 10.5436 16.9252 11.4041C16.5469 11.7825 16.2981 12.0314 14.7382 10.471Z" fill="#FB4949"/>
</svg>
