<svg width="26" height="33" viewBox="0 0 26 33" fill="none" xmlns="http://www.w3.org/2000/svg">
<path fill-rule="evenodd" clip-rule="evenodd" d="M3.24978 16.6245C2.81964 16.4171 2.41282 16.1398 2.05524 15.7821C0.363177 14.0896 0.363177 11.3474 2.05524 9.65487L7.36463 4.34146C7.49678 4.20666 7.64189 4.08747 7.78699 3.97337L8.59545 3.16466C12.5289 -0.769835 18.9033 -0.769836 22.8368 3.16466C26.7702 7.09916 26.7702 13.4753 22.8368 17.4098L22.6683 17.5783C22.5724 17.6975 22.4714 17.8116 22.36 17.923L8.76906 31.5175C7.077 33.21 4.3355 33.21 2.64344 31.5175C0.951383 29.8276 0.951382 27.0827 2.64344 25.3928L4.28886 23.747C3.88981 23.55 3.51409 23.2856 3.18241 22.9539L3.04767 22.8191C1.39448 21.1655 1.39448 18.4803 3.04767 16.8266L3.24978 16.6245ZM10.5907 5.25116C10.5777 5.26156 10.5518 5.28486 10.5518 5.28486L10.5544 5.28747L3.78357 12.0601C3.16686 12.677 3.16686 13.6801 3.78357 14.2969C4.40028 14.9138 5.40308 14.9138 6.01979 14.2969L9.03077 11.2852C9.50497 10.8083 10.2772 10.8108 10.7539 11.2852C11.2307 11.7595 11.2307 12.5319 10.7539 13.0088L9.66562 14.0974L5.03772 18.7265C4.43397 19.3304 4.43397 20.3102 5.03772 20.9141L5.08695 20.9633C5.6907 21.5672 6.67018 21.5672 7.27393 20.9633L11.8993 16.3368L11.9044 16.342L12.9927 15.2534C13.4669 14.7764 14.2391 14.7764 14.7159 15.2534C15.1927 15.7277 15.1927 16.5001 14.7159 16.977L14.3713 17.3243L14.379 17.3243L4.73455 26.9713C4.11784 27.5882 4.11784 28.5912 4.73455 29.2081C5.35126 29.825 6.35405 29.825 6.97076 29.2081L20.5021 15.6732C20.5383 15.637 20.5746 15.5981 20.6057 15.5592C20.6809 15.4892 20.756 15.4192 20.8286 15.3467C23.6374 12.5396 23.6374 7.98566 20.8286 5.17606C18.0223 2.36636 13.4695 2.36636 10.6607 5.17607C10.6373 5.20197 10.614 5.22786 10.5907 5.25116ZM19.3594 13.0529C20.243 12.169 20.6861 11.0079 20.6861 9.84406L20.6861 9.84146C20.6861 8.68026 20.243 7.51656 19.3594 6.63266C17.5896 4.86246 14.7108 4.86247 12.941 6.63267C10.6659 8.91097 12.9125 11.1582 13.8738 12.1198C14.8352 13.0814 17.0843 15.3286 19.3594 13.0529ZM15.5244 10.4713C14.5942 9.54087 14.3065 9.07686 14.3065 8.77366C14.3065 8.56886 14.4387 8.43667 14.5916 8.28377C15.4519 7.42327 16.8511 7.42327 17.7114 8.28377C18.5717 9.14426 18.5717 10.5439 17.7114 11.4044C17.3331 11.7828 17.0843 12.0317 15.5244 10.4713Z" fill="#FB4949"/>
</svg>
